<?xml version="1.0" ?><svg data-name="Layer 1" id="Layer_1" viewBox="0 0 64 64" xmlns="http://www.w3.org/2000/svg" xmlns:xlink="http://www.w3.org/1999/xlink"><defs><style>.cls-1{fill:url(#linear-gradient);}.cls-2{fill:#fff;}</style><linearGradient gradientUnits="userSpaceOnUse" id="linear-gradient" x1="3" x2="61" y1="32" y2="32"><stop offset="0" stop-color="#92278f"/><stop offset="1" stop-color="#9e1f63"/></linearGradient></defs><title/><rect class="cls-1" height="58" rx="16.02" ry="16.02" width="58" x="3" y="3"/><path class="cls-2" d="M25.69,44.31a4.08,4.08,0,0,0,5.76,0l4.66-4.66L44.42,48A2.51,2.51,0,0,0,48,44.42l-8.31-8.31,4.66-4.66a4.08,4.08,0,0,0,0-5.76l-0.78-.78L24.91,43.53Z"/><path class="cls-2" d="M35.11,16.49a4.08,4.08,0,0,0-5.76,0L16.49,29.35a4.08,4.08,0,0,0,0,5.76l6.21,6.21L41.32,22.7Z"/></svg>